<svg xmlns="http://www.w3.org/2000/svg" xmlns:xlink="http://www.w3.org/1999/xlink" xml:space="preserve" viewBox="0 0 1920 1080" enable-background="new 0 0 1920 1080" id="basketball">
  <path d="M1148.8 977.4H335.5c-31 0-56.1-25.1-56.1-56.1s25.1-56.1 56.1-56.1h414c44.1 0 79.9-35.8 79.9-79.9 0-44.1-35.8-79.9-79.9-79.9H544.7c-45.1 0-81.6-36.5-81.6-81.6 0-45.1 36.5-81.6 81.6-81.6h21.6c39 0 70.7-31.6 70.7-70.7 0-39-31.6-70.7-70.7-70.7H340.7c-33.8 0-61.3-27.4-61.3-61.3 0-33.8 27.4-61.3 61.3-61.3h94.1c29.2 0 52.9-23.7 52.9-52.9s-23.7-52.9-52.9-52.9h-19c-35 0-63.4-28.4-63.4-63.4s28.4-63.4 63.4-63.4h733.1c257.3 0 465.9 208.6 465.9 465.9-.1 257.3-208.7 465.9-466 465.9z" opacity=".1" fill="#2a94f4"></path>
  <g>
    <ellipse cx="1204" cy="1018.6" rx="129.1" ry="40.4" opacity=".1" fill="#2a94f4"></ellipse>
    <ellipse cx="1441.4" cy="1035.9" rx="73.7" ry="23.1" opacity=".1" fill="#2a94f4"></ellipse>
    <path d="M1154.7 88.6s22.8-51.1-17.7-63.4-46.2-13.3-64.3-11.4c-24.2 2.4-35.7 36.8-38.7 53.5-2.8 15.3 1 26.2 13 47.1s16.9 15.6 22.2 16.5c5.2.8 85.5-42.3 85.5-42.3z" fill="#0b4870"></path>
    <path d="M1015.1 554.6s65.7 157.3 70.4 180.8c4.7 23.5 84.5 192.5 84.5 192.5l-28.2 18.8s-103.5-139.5-112.7-180.8c-4.7-21.1-82.2-124.4-82.2-124.4l68.2-86.9z" fill="#fcd2b1"></path>
    <path d="m1146.2 876.6 38.3 65.1-33.5 18.9-44.1-62.8z" fill="#cce9ff"></path>
    <path d="m706.4 615.6 69.3 35.2s-33.1 63.4-65.8 75.1c-32.8 11.7-218.2-63.4-218.2-63.4l5.3-36.1s144.1 27.8 185.4 43.6l24-54.4z" fill="#fcd2b1"></path>
    <path d="M987.2 470.1s44.5 101 76.4 157.3c0 0-59.7 65.2-94.9 79.2 0 0-108.6-108.6-106.2-152 0 0-61.6 118.6-86.8 136.2 0 0-78.1-38.7-97.4-51.1 0 0 56.3-264.6 144.4-296.9-.1 0 174.1 52.7 164.5 127.3z" fill="#ffbe55"></path>
    <path d="M954.1 179.9s-85.7-23.2-130.3-25.6c0 0-66.9 102.1-81 116.2 0 0-8.2 23.5-8.2 41.1s-16.4 27-25.8 24.7c-9.4-2.3-18.8-14.1-17.6-28.2 1.2-14.1 18.8-22.3 25.8-35.2 7-12.9 55.1-158.5 96.2-163.2 41.1-4.7 183.2 35.2 183.2 35.2l-42.3 35zM1096.7 261s91 95.2 119.2 109.3 159.7 49.3 159.7 49.3 22.3 15.3 29.3 27 20 7 20 7c4.7-8.2-11.7-10.6-15.3-18.8-3.5-8.2 42.3 10.6 57.5 24.7 0 0 17.6-8.2 10.6-20-7-11.7-18.8-25.8-36.4-29.3-17.6-3.5-29.3-3.5-42.3-9.4-12.9-5.9-140.3-58-159.1-73.1-29.9-24.3-101.6-99.4-101.6-99.4l-41.6 32.7z" fill="#fcd2b1"></path>
    <path d="M969.4 208c4.4-1.8 22.5-59.3 22.5-59.3s48 15.3 63.8-34c0 0-5.3-.1-7-12.3-3.5-24.6 16.2-20.2 19-13.1-.8-4.4-1.7-16.9 8.9-29 7.8-8.8 28.7-26.6 74.8-2.9 0 0 12.6 60.7-11.2 85.4-12.1 12.5-27.5 13.4-39.8 11.3-4.2 5.9-8.7 13.2-10.4 19.5l30.8 34.3-51.1 61.6s-87.2 7.9-89.8 0c-2.6-7.8-14.9-59.7-10.5-61.5z" fill="#fcd2b1"></path>
    <path d="m1120.8 208 22.2 25s-41.9 48.6-67.1 110.9c-25.2 62.2-88.7 126.2-88.7 126.2s-35-20.8-143.5-78.8c-26.9-14.4-70.9-3.8-70.9-3.8s70.9-102.9 171.9-206.8l40.7-38.8 25 7.7s7 63.3 21.1 78.6 89.3-20.2 89.3-20.2zM1189.9 931.1c8.7 4 16.5 4.6 22.6.9l3.3-2c20.6-9.8 44.9-6.6 62.4 8l-108.3 65.8L1147 959l42.9-27.9z" fill="#ffbe55"></path>
    <path d="m525.6 675.8-71.5-24.6 12.3-35.1 74.8 19.3z" fill="#cce9ff"></path>
    <path d="M456.8 662.2c-9.4 1.6-16.2 5.6-19.1 12l-1.6 3.5c-11.4 19.7-33.3 30.9-56 28.7l52.1-115.5 44.2 24-19.6 47.3z" fill="#ffbe55"></path>
    <path d="M1067.7 91.2s25.4-21.1 21-42.9c0 0 87.2 23.8 64.3 9.2s-45.4-37.1-71.5-18.3c-36.2 26.1-13.8 52-13.8 52z" fill="#0b4870"></path>
    <path d="m1120.8 208 22.2 25s-41.9 48.6-67.1 110.9c-25.2 62.2-88.7 126.2-88.7 126.2s-35-20.8-143.5-78.8c-26.9-14.4-70.9-3.8-70.9-3.8s70.9-102.9 171.9-206.8l40.7-38.8 25 7.7s7 63.3 21.1 78.6 89.3-20.2 89.3-20.2z" opacity="9.000000e-02"></path>
    <circle cx="1444.9" cy="648" r="95" fill="#ffbe55"></circle>
    <defs>
      <circle id="a" cx="1444.9" cy="648" r="95"></circle>
    </defs>
    <clipPath id="b">
      <use xlink:href="#a" overflow="visible"></use>
    </clipPath>
    <g clip-path="url(#b)">
      <path d="M1414.2 744.8c.5-.4 50.4-41.8 25.7-85.8-26.6-47.3-96.1-24.5-96.8-24.2l1.9 5.5c.7-.2 65.7-21.5 89.9 21.6 22.4 39.8-23.8 78-24.3 78.4l3.6 4.5z" fill="#0b4870"></path>
    </g>
    <g clip-path="url(#b)">
      <path d="M1529.8 629.5c1.8 0 3.6 0 5.5-.1l-.3-5.8c-21.3 1-36.8-4.2-46.2-15.4-16.2-19.5-9-51.1-8.9-51.5l-5.7-1.3c-.3 1.4-8 34.7 10.1 56.5 9.7 11.7 25 17.6 45.5 17.6z" fill="#0b4870"></path>
    </g>
    <g clip-path="url(#b)">
      <path d="M1359.3 694c127.2-23.5 163.4-109.6 163.8-110.5l-5.4-2.2c-.3.8-35.6 84-159.4 107l1 5.7z" fill="#0b4870"></path>
    </g>
    <g clip-path="url(#b)">
      <path d="m1502.3 722.1 5.8-.2c-4.2-101.9-111.6-160.5-112.7-161.1l-2.7 5.1c1 .5 105.5 57.7 109.6 156.2z" fill="#0b4870"></path>
    </g>
  </g>
</svg>
