<svg xmlns="http://www.w3.org/2000/svg" xmlns:xlink="http://www.w3.org/1999/xlink" xml:space="preserve" id="game" width="64" height="64" x="0" y="0" version="1.1" enable-background="new 0 0 64 64">
  <defs id="defs275">
    <clipPath id="SVGID_2_">
      <use xlink:href="#SVGID_9_" id="use189" width="100%" height="100%" x="0" y="0" overflow="visible"></use>
    </clipPath>
    <defs id="defs185">
      <circle id="SVGID_9_" cx="21.687" cy="56.831" r="4.563"></circle>
    </defs>
  </defs>
  <g id="g3392">
    <circle id="circle13" cx="23.867" cy="17.741" r="16.433" fill="#ff6d00"></circle>
    <circle id="circle21" cx="38.294" cy="34.572" r="16.433" fill="#ab0738"></circle>
    <path id="path29" d="M34.321 46.458s1.563-.937 2.625-1.219c1.063-.28 1.625-.156 1.625-.156l.531 2.719.813 2.719-.094 4.343.688 3.157-2.344.437-.771-.094-.948-4.156-1.687-1.906-.657-3.063.22-2.78z" fill="#fff"></path>
    <path id="path37" d="M34.412 49.165c-.21 0-.336-.009-.35-.01l.08-.997c.01.001.958.068 2.08-.234a39.06 39.06 0 0 0 2.667-.863l.344.94c-.061.022-1.514.553-2.75.888a8.09 8.09 0 0 1-2.07.276z" fill="#ab0738"></path>
    <path id="path45" d="M5.331 17.99s-.541 1.52-.354 1.854c.188.333.75 1.083 1.125 1.229.375.146.834.396.938.104.104-.292-.042-.667-.042-.896 0-.23.25-.5.625-.187.375.312.646.541.73.437.083-.104.603-1.437.603-1.437l1.396-.542 4.98-.021 5.124-1.167h1.959l1.125.782 1.083 3.76-3.77 10.927-3.657 5.781-.719 1.657-1.843-.282-2.532 4.521 3.313 2.198 4.406-1.531 1.719-2.906 1.062-.365 2.22-1.573 1.572-1.573 1.02-.083s1.563 2.281 1.563 2.375c0 .094.646 2.146.646 2.146l2.375.25 1.76 1.323.563 2.343 2.375-.406 2.094-1.156-.781-2.875-.463-3.148-.85-1.946-1.312-3.156-.47-2.23 2-6.364 2.657-6.875 1.719-.969 7.812.5 6.375-1.125 3.938-.5.037-.44s.14-.342.582-.477c.441-.136.476-.194.718-.047.28.17.082.606.129.8.047.194.253.382.653.335.4-.047.712-.588.765-.894.053-.306-.03-1.306-.03-1.306l-1.25-.991-2.417.083-.77.667-1.042.125-2.354.083-4.021-.063-6.104-.854-3.396-1.875-5.209-.791-1.208-.5 1.636-5.01.375-2.782-1.344-.969-3.25-.656-2.23 1.396-.145 2.958.125 3.365-.938 2.53-3.625 1.876L9.29 15.489l-3.959 2.5z" fill="#ebb181"></path>
    <path id="path53" d="M29.196 39.849s.313.64.969 1.406c.656.766 2.047 2.203 2.047 2.203l-2.125-.047-.953-1.468-.438-1.75.5-.344z" fill="#323233"></path>
    <path id="path61" d="M37.394 58.364s1.083-.75 2-.75 1.208.063 1.208.063l1.813 1.625 2.312.333.188 1.375-1.23.417-5.354-.25-1.354-.063-.166-1.645.583-1.105z" fill="#ab0738"></path>
    <path id="path69" d="M16.634 39.52s3.677 1.094 4.385 1.532c.708.437 1.583.854 1.583.854l1.917-1.27 1.875-1.876.5-.083 1.667 1.667.375 1.416s.48-1.725 1.621-2.502c1.142-.776 2.095-.882 2.718-.823.624.059 2.306-.012 3.212.576.906.589 1.059.518 1.059.518l-.173-1.519-1.042-1.416-1.416-2-.167-1.396.167-1 .062-1.209s-1.53.657-5.437-.562a179.747 179.747 0 0 1-6.844-2.281l-1.156 1.562-.875 3.625-1 1.323-1.594 2.615-1.437 2.25z" fill="#32313c"></path>
    <path id="path77" d="m10.248 38.281-1.333.25-1.167 1.73.25 1.666 2.146.396 1.958 2.187 1.563 1.063.416.166s-.333-.437-.166-1.229c.166-.791.937-2.166 1.062-2.312.125-.146.813-.875.813-.875l-.542-1-3.625-1.063-1.375-.979z" fill="#fff"></path>
    <path id="path85" d="m12.659 44.586-.887-.463c.03-.058.745-1.428 1.433-2.509a7.749 7.749 0 0 1 1.61-1.828l.612.79c-.007.006-.755.595-1.378 1.575a39.228 39.228 0 0 0-1.39 2.435z" fill="#ab0738"></path>
    <path id="path93" d="M8.581 42.281s-.666-.75-.395-1.833c.27-1.084.27-1.417.604-1.5.333-.084 1.708-.104 1.708-.104l-.896-1.146-2.166.708-3.25 1.792-2.459 1.979-.02 1.833 1.458 1.125 2.083-1.27 2.438-1.271.895-.313z" fill="#ab0738"></path>
    <path id="path101" d="M21.29 30.698s.75 1.323 3.562 1.479c2.813.156 6.563-1.031 7.813-.344 1.25.688 2.25.719 2.25.719l.719-4.031 2.625-6.282 1.697-3.541.69-.225a8.1 8.1 0 0 1 3.048-.38l1.554.105 5.542-.042 6.458-.833.333-.167s0 .542-.166-.625c-.167-1.167.166-1.958.166-1.958l-2.375.083s-5.458-.125-5.583-.125-5.927-.854-5.927-.854l-5.156-2.354-2.625-.125-.73-.021s-.312.542-.77.875c-.459.333-1.542.792-2.542.437-1-.354-1.875-.854-2.27-1.291-.397-.438-.438-.771-.438-.771l-1.75 1.02-2.167.084-1.542.208-1.791 1.334-4.125.75-6.959 1.625-2.583 1.041s.833.209 1.167.959c.333.75.333 1.333.333 1.333l1.958-.292 4.178-.593 3.562-.344 3.75-.094.927 1.656v4l-.917 3.292-1.916 4.292z" fill="#ab0738"></path>
    <path id="path109" d="M59.54 61.781H2.04a.5.5 0 1 1 0-1h57.5a.5.5 0 1 1 0 1z" fill="#231f20"></path>
    <path id="path117" d="M44.83 61.702c-.058 0-.065.008-.119-.013l-7.717.072a.497.497 0 0 1-.357-.156c-.229-.239-.56-.84-.348-1.568.095-.33.253-.599.392-.836.15-.258.269-.46.256-.633-.051-.682-.448-2.904-1.66-4.949-1.405-2.37-1.487-3.496-1.529-5.62l-.009-.594c-.02-1.587-.022-1.753-.907-2.543l-.994-.887c-.625.073-1.864.124-2.379-.53-.384-.49-1.935-3.258-2.627-4.503-1.226 1.25-2.758 2.792-3.11 3.067-.245.19-.332.279-.375.325a.622.622 0 0 1-.434.214c-.122.017-.51-.002-1.147-.055-.46.759-1.7 2.754-2.367 3.364-.855.783-1.379.967-1.74 1.04-.032.008-.086.032-.153.057-.53.209-1.77.694-3.062-.193-.035-.025-3.534-2.433-4.168-3.338-.433-.62-.484-.677-.873-.713-.535-.056-2.279.329-3.15.905-.553.365-1.903 1.236-2.49 1.453-.452.168-1.436.345-1.913-.196a.608.608 0 0 0-.113-.09c-.38-.268-.595-.589-.564-1.435.043-1.217 1.111-2.482 1.672-2.818.114-.068.215-.164.333-.27.363-.327.86-.776 1.9-1.1 1.236-.387 2.81-1.576 2.826-1.589.077-.05 1.04-.64 2.146.034.566.345.858.655 1.092.904.134.143.258.278.44.409.16.102.92.222 1.422.302.998.157 2.03.319 2.544.704l.75.562a.5.5 0 1 1-.6.801l-.75-.562c-.314-.237-1.346-.399-2.1-.518-.97-.153-1.536-.25-1.85-.477-.25-.18-.42-.361-.585-.536a3.701 3.701 0 0 0-.883-.735c-.575-.35-1.054-.07-1.058-.066-.033.028-1.694 1.283-3.095 1.721-.832.259-1.202.593-1.53.888-.17.154-.322.286-.487.386-.34.203-1.16 1.193-1.188 1.995-.017.47.039.51.14.58.078.055.184.13.288.249.08.049.475.048.815-.08.331-.122 1.228-.653 2.287-1.35 1.076-.712 3.036-1.14 3.793-1.067.862.08 1.137.472 1.593 1.124.34.485 2.298 1.983 3.923 3.098.854.586 1.653.275 2.13.087.14-.054.25-.092.322-.107.137-.027.502-.1 1.26-.795.57-.523 1.887-2.638 2.346-3.408a.519.519 0 0 1 .473-.242c.434.038.949.076 1.17.083.078-.075.196-.18.396-.334.392-.306 2.957-2.913 4.585-4.591a.5.5 0 0 1 .722.691l-.844.894c.974 1.758 2.375 4.231 2.674 4.613.141.179.955.241 1.675.127.15-.02.3.021.411.121l1.167 1.041c1.213 1.084 1.22 1.636 1.241 3.275l.01.588c.04 2.05.107 2.968 1.388 5.13 1.579 2.664 1.795 5.358 1.797 5.385.036.483-.19.87-.39 1.211-.12.207-.234.401-.295.611a.668.668 0 0 0 .022.447l7.117.056c-.055-.413-.405-.716-.53-.778a2.36 2.36 0 0 0-.35-.035c-.332-.02-.787-.048-1.275-.239-.82-.32-2.02-1.301-2.429-2.195-.23-.5-.377-2.268-.602-5.796-.064-1.002-.12-1.866-.157-2.133-.046-.319-.149-.619-.268-.965-.177-.515-.397-1.155-.524-2.123-.14-1.055-.502-2.228-.742-3.004-.118-.38-.211-.685-.251-.873-.064-.296-.035-.48-.006-.66.04-.254.107-.68-.124-2.116-.293-1.82-.901-2.657-1.545-3.544-.14-.192-.28-.385-.417-.588-.732-1.078-.95-2.569-.665-4.56.223-1.562 2.97-8.648 4.175-11.331 1.124-2.51 2.404-2.432 3.092-2.383.092.007.216.015.255.005.503-.111 2.167-.001 4.463.17l.962.07c1.725.121 4.295-.018 4.965-.101.32-.04 1.144-.247 1.87-.427.727-.182 1.414-.353 1.763-.405.29-.044.497-.057.71-.07a7.461 7.461 0 0 0 1.184-.155c.868-.175 1.426-.713 1.432-.718a.5.5 0 1 1 .707.707 4.09 4.09 0 0 1-1.943.991 8.446 8.446 0 0 1-1.32.173c-.186.011-.367.022-.62.06-.303.046-.998.22-1.67.387-.827.207-1.608.4-1.988.449-.72.09-3.342.234-5.16.106l-.966-.07c-1.413-.106-3.774-.277-4.172-.19-.179.038-.36.027-.536.016-.567-.038-1.276-.082-2.116 1.793-1.284 2.865-3.907 9.736-4.097 11.064-.248 1.734-.084 2.995.502 3.857.132.194.266.379.399.562.685.944 1.393 1.918 1.723 3.974.256 1.593.177 2.096.124 2.429-.022.143-.028.181-.004.296.037.17.123.444.229.786.25.808.628 2.03.778 3.169.114.87.308 1.431.478 1.927.13.38.254.738.313 1.152.043.305.097 1.145.165 2.21.111 1.745.318 4.994.513 5.443.284.618 1.273 1.44 1.884 1.68.341.134.676.154.972.172.28.016.521.031.735.138.407.203 1.062.85 1.09 1.724.016.497.018.83-.462.884-.017.002-.046-.044-.062-.044z" fill="#231f20"></path>
    <path id="path125" d="M15.258 42.552a.5.5 0 0 1-.415-.778c.01-.016 1.105-1.664 1.612-2.855.583-1.373 1.722-3.399 2.844-4.604.812-.872 1.135-2.226 1.349-3.123.059-.248.111-.465.163-.637.233-.779.474-1.23 1.002-2.218l.244-.457c.773-1.456 1.312-2.777 1.559-3.819.252-1.065-.366-5.266-.538-5.723a5.22 5.22 0 0 0-.307-.616.5.5 0 0 1 .849-.529s.173.275.38.755c.245.573.89 5.072.589 6.344-.337 1.42-1.082 2.99-1.65 4.057l-.244.46c-.525.983-.722 1.35-.926 2.033-.048.158-.094.356-.149.583-.238.998-.598 2.508-1.59 3.572-1.039 1.116-2.105 3.019-2.655 4.312-.543 1.279-1.654 2.95-1.7 3.02a.5.5 0 0 1-.417.223z" fill="#231f20"></path>
    <path id="path133" d="M8.352 20.052a.5.5 0 0 1-.12-.986c0-.009.12-.113.2-.182.277-.243.591-.518.973-.55.066-.005.163-.019.287-.035.597-.08 1.708-.232 3.217-.153 1.027.045 1.591-.228 2.041-.454.304-.152.59-.297.934-.297.218 0 .54-.044.947-.1.63-.086 1.493-.205 2.598-.243 2.012-.07 3.943-.309 4.262-.468.695-.346 1.782-.15 1.903-.127a.5.5 0 0 1-.19.982c-.357-.07-.986-.101-1.266.04-.645.322-3.21.522-4.675.573-1.054.036-1.888.15-2.496.234-.445.062-.797.11-1.083.11-.106 0-.282.087-.485.19-.496.249-1.248.632-2.541.558-1.418-.07-2.467.07-3.032.146-.147.02-.26.035-.338.04-.074.022-.285.208-.398.307-.212.184-.394.344-.617.4a.519.519 0 0 1-.121.015z" fill="#231f20"></path>
    <path id="path141" d="M29.977 7.323s.48-2.48 1.23-2.813c.75-.333.604-.666 2-.312 1.395.354 1.666.708 2.083.5.416-.209.958-.334.958-.334l-.792-2.333-2.666-.896-1.5.313-1.48 1.458-.354.77-.208 2 .73 1.647z" fill="#30384c"></path>
    <path id="path149" d="M5.504 21.006a.498.498 0 0 1-.386-.182c-.053-.064-.325-.403-.427-.72-.118-.366-.077-1.188-.037-1.38.079-.378.913-1.312 1.3-1.634.34-.284 1.226-.7 2.538-1.3.482-.22.937-.43 1.262-.592 1.036-.518 3.39-1.3 5.152-1.334 1.582-.03 3.82-.453 5.214-.855.7-.202 1.724-.672 2.627-1.086 1.027-.471 1.676-.764 2.073-.841.53-.103.892-.084 1.276-.066.21.01.445.024.744.015.547-.013 1.324-.36 1.668-.539l.685-.839c-.003 0 .243-.385.243-.934 0-.232-.114-.716-.235-1.229-.217-.92-.486-2.066-.387-2.933a.5.5 0 1 1 .993.113c-.08.695.168 1.746.368 2.592.146.619.26 1.109.26 1.457 0 .883-.4 1.474-.446 1.539l-.77.944a.515.515 0 0 1-.145.121c-.126.07-1.26.685-2.21.708-.333.007-.587-.005-.818-.016-.362-.017-.622-.033-1.035.05-.3.057-1.086.417-1.847.766-.935.43-1.995.916-2.767 1.139-1.41.407-3.726.86-5.473.894-1.537.03-3.73.733-4.723 1.229-.332.166-.799.38-1.293.606-.865.396-2.05.939-2.313 1.158-.392.326-.912.993-.985 1.143-.003.077-.007.66.033.797.03.096.163.289.247.391a.5.5 0 0 1-.386.818z" fill="#231f20"></path>
    <path id="path157" d="M32.966 12.228c-.773 0-1.195-.285-1.533-.56-.41-.33-.651-.824-.678-.88a.5.5 0 0 1 .902-.432c.046.095.209.376.406.536.283.23.512.375 1.103.329.634-.052.767-.336.817-.444.25-.57 1.824-5.47 1.79-6.1a.516.516 0 0 1 .447-.542c.26-.03.503.14.543.404.142.93-1.852 6.614-1.874 6.661-.196.419-.64.936-1.642 1.017a3.149 3.149 0 0 1-.281.011z" fill="#231f20"></path>
    <path id="path165" d="M62.29 16.719a.5.5 0 0 1-.497-.557c.2-1.759-.372-1.827-.925-1.894l-.102-.011c-.536-.073-1.233.055-1.728.315l-.207.11c-.575.31-1.168.632-1.826.384-.224-.082-.323-.047-.611.064-.085.032-.175.066-.274.1-.089.029-.154.058-.213.084-.358.16-.612.223-1.55.174-.514-.026-1.24-.136-2.007-.25-1.066-.161-2.274-.343-3.154-.343-1.63 0-2.503-.1-3.46-.397-.654-.203-1.202-.248-1.685-.287-.145-.012-.282-.023-.41-.037-.66-.074-1.512-.554-3.297-1.632-1.267-.765-1.9-.746-2.858-.72-.19.005-.389.01-.602.01-1.371 0-2.544-.35-2.593-.364a.5.5 0 0 1 .29-.957c.01.003 1.085.322 2.303.322.203 0 .392-.006.574-.01 1.01-.03 1.884-.054 3.403.863 1.437.868 2.415 1.44 2.89 1.494.12.013.247.023.381.034.508.042 1.14.094 1.9.329.85.264 1.647.352 3.164.352.955 0 2.202.188 3.302.353.743.112 1.446.218 1.912.242.796.04.914-.01 1.09-.09.085-.037.178-.078.304-.12.084-.028.161-.057.233-.085.347-.133.74-.283 1.32-.064.218.079.523-.073 1-.33l.216-.114c.673-.355 1.585-.523 2.324-.422 1.073.128 2.167.576 1.89 3.01a.5.5 0 0 1-.497.444z" fill="#231f20"></path>
    <path id="path173" d="M36.269 5.114a.5.5 0 0 1-.5-.5 2.982 2.982 0 0 0-2.98-2.978 2.982 2.982 0 0 0-2.978 2.978.5.5 0 1 1-1 0A3.984 3.984 0 0 1 32.79.636a3.984 3.984 0 0 1 3.979 3.978.5.5 0 0 1-.5.5z" fill="#231f20"></path>
    <circle id="circle4802" cx="21.747" cy="56.706" r="4.563" fill="#e6e6e6" stroke="none" stroke-width="1" stroke-miterlimit="4" stroke-dasharray="none"></circle>
    <path id="polygon199" d="m22.447 52.203-.052.67-1.258.72 1.34.563.302 1.422.944-1.1 1.443.159-.758-1.242.13-.291a4.563 4.563 0 0 0-2.09-.9zm-2.13 1.045-1.413.332-.248-.225a4.563 4.563 0 0 0-1.207 1.834l.346.145.3 1.422.944-1.1 1.39.153.384 1.265-.825 1.04 1.319.019.726 1.101.434-1.254 1.27-.359-1.05-.795.061-1.324-1.082.766-1.228-.46.044.006-.755-1.242.59-1.324zm5.236 2.885-.518 1.217-1.297.271 1 .86-.146 1.31.965-.582a4.563 4.563 0 0 0 .713-1.928l-.063-.006-.654-1.142zm-8.07 1.377-.053.656a4.563 4.563 0 0 0 2.025 2.48l.684.075-.756-1.242.59-1.325-1.412.332-1.079-.976zm4.564 1.7-.115 1.448-.944.541a4.563 4.563 0 0 0 .758.069 4.563 4.563 0 0 0 2.494-.743l.297-.668-1.41.33-1.08-.976z" fill="#ab0738"></path>
    <path id="path247" d="M21.747 61.768a5.069 5.069 0 0 1-5.063-5.062 5.069 5.069 0 0 1 5.063-5.063 5.069 5.069 0 0 1 5.062 5.063 5.069 5.069 0 0 1-5.062 5.062zm0-9.125a4.067 4.067 0 0 0-4.063 4.063 4.067 4.067 0 0 0 4.063 4.062 4.067 4.067 0 0 0 4.062-4.062 4.067 4.067 0 0 0-4.062-4.063z" fill="#231f20"></path>
    <path id="path255" d="M30.907 18.4c-.826 0-1.589-.16-2.336-.316-.386-.081-.78-.163-1.19-.226a.5.5 0 1 1 .15-.988c.43.065.84.15 1.245.235 1.147.242 2.137.449 3.33.149 1.85-.462 3.61-.019 3.684 0a.5.5 0 0 1-.25.97c-.015-.005-1.591-.4-3.192 0a5.898 5.898 0 0 1-1.441.175z" fill="#231f20"></path>
    <path id="path263" d="M31.707 21.823a.483.483 0 0 1-.083-.007c-.032-.005-.796-.134-2.225-.555-1.491-.439-3.26-1.516-3.601-1.808a.5.5 0 0 1 .651-.76c.222.192 1.854 1.202 3.232 1.609 1.363.401 2.1.527 2.108.528a.5.5 0 0 1-.082.993z" fill="#231f20"></path>
    <path id="path271" d="M27.165 27.49a.5.5 0 0 1-.487-.614c.086-.374.28-1.498.138-2.193-.215-1.045-.505-1.762-.971-2.398a.5.5 0 0 1 .807-.592c.548.75.901 1.61 1.143 2.79.216 1.051-.128 2.556-.143 2.62a.5.5 0 0 1-.487.386z" fill="#231f20"></path>
  </g>
</svg>
