<svg xmlns="http://www.w3.org/2000/svg" xml:space="preserve" id="game" width="64" height="64" x="0" y="0" version="1.1" enable-background="new 0 0 64 64">
  <g id="g5">
    <g id="g4314">
      <g id="g11">
        <circle id="circle13" cx="28.896" cy="28.645" r="15.745" fill="#ab0738"></circle>
      </g>
      <g id="g19">
        <circle id="circle21" cx="43.209" cy="33.783" r="15.745" fill="#ff6d00"></circle>
      </g>
      <g id="g27">
        <path id="polygon29" d="m30.94 42.008.427-2.968 4.333-4.153 3.644 2.195 1.19 3.76 3.023 8.674-3.213 2.18-2.791-4.25-.798-2.226-.327-3.915-2.716-.385-2.345-.534-.719 2.537-2.004 4.433-1.823 2.659-4.06.64-7.054 2.476-1.203-2.916 4.807-2.53 2.177-1.626.98-1.02.99-3.593 5.428-.197z" fill="#edb29f"></path>
      </g>
      <g id="g35">
        <path id="path37" d="M37.073 16.665s2.786-.785 4.076-1.097c1.29-.312 3.643-1.414 3.643-1.414l1.218-1.414 1.62-1.178h2.568l-.579 3.63-2.108.379-2.745 1.157-3.837 1.77.525.545 7.713-1.003 2.02-2.155-.051-1.158.937-1.281 1.782 1.156-.427 1.052v2.084l-2.5 1.96-7.563 3.165-8.566-1 2.056-4.136.218-1.062z" fill="#edb29f"></path>
      </g>
      <g id="g43">
        <path id="polygon45" d="m30.702 7.685.224 3.79-1.23 1.43 1.23 1.54 1.929.848h.437l.826-.591 2.486-.548 1.15-3.081.499-3.03-6.555-1.16z" fill="#edb29f"></path>
      </g>
      <g id="g51">
        <path id="path53" d="M60.386 59.946H3.614a.5.5 0 1 1 0-1h56.772a.5.5 0 1 1 0 1z" fill="#231f20"></path>
      </g>
      <g id="g59">
        <path id="path61" d="M40.198 39.54a.5.5 0 0 1-.5-.5c0-.42-.187-.812-.513-1.077a.5.5 0 1 1 .628-.777c.563.455.885 1.131.885 1.854a.5.5 0 0 1-.5.5z" fill="#231f20"></path>
      </g>
      <g id="g67">
        <path id="path69" d="M39.516 50.612s.078-.604 1.307-1.166c1.23-.563 2.296-.794 2.296-.794l3.121 4.627.542 1.188-2.625 1.041-1.838.193-.496-2.047-1.479-1.958-1-1.167.172.083z" fill="#f0f2f2"></path>
      </g>
      <g id="g75">
        <path id="path77" d="M32.663 40.711s-.506-.328.598-1.994c1.104-1.667 2.792-3.354 2.792-3.354l-2.457-1.628-.556-1.33s-1.154-.678-1.873-.96c-.719-.28-2.031-.562-3.125 0-1.094.563-2.062 1.75-3.375 1.75-1.312 0-2.437-.468-2.437-.468l1.354 3.6-.192 1.207-.15 4.816s1.675.971 3.175.471c1.5-.5 4.231.102 4.231.102l.72-1.674.393-.863.902.325z" fill="#32313c"></path>
      </g>
      <g id="g83">
        <path id="path85" d="M30.36 12.219c.443.56 1.088 1.6 1.901 1.935.812.334 1.857.548 1.857.548l2.289-.548.92.083.215 2.365s-.22 1.037-.324 1.118c-.103.08 1.501.596 1.501.596s-.625.672-1.354 1.172c-.729.5-1.458 2.166-1.562 2.416-.105.25.45.853.45.853l-1.96 3.876-1.253 5.771s-1.756-1.025-2.467-1.145c-.71-.119-1.805-.374-2.908.406-1.104.78-2.373 1.78-3.279 1.78-.767 0-2.156-.718-2.156-.718l1.088-4.887 2.662-7.894 2.411-5.113 1.97-2.614z" fill="#ab0738"></path>
      </g>
      <g id="g91">
        <path id="path93" d="M42.604 55.29s1-.063 2.313-.657c1.313-.593 1.54-.783 1.54-.783l4.702 3.989.644 1.607-5.448.094-4.037-.169-1.213-1.925 1.5-2.156z" fill="#ab0738"></path>
      </g>
      <g id="g99">
        <path id="path101" d="M51.803 59.946h-.004l-9.485-.075a.5.5 0 0 1-.26-.075 2.372 2.372 0 0 1-1.13-2.028c0-.638.249-1.237.7-1.687a.5.5 0 1 1 .706.707c-.262.262-.405.61-.405.98 0 .439.203.843.549 1.104l8.86.07a3.609 3.609 0 0 0-.026-.238c-.04-.278-.322-.396-.325-.397-5.892-3.404-10.08-10.642-11.28-19.399a.498.498 0 0 1 .428-.562.504.504 0 0 1 .562.427c.434 3.166 2.489 13.87 10.717 18.633.236.082.79.465.888 1.157.093.656.005.972-.026 1.053a.5.5 0 0 1-.47.33z" fill="#231f20"></path>
      </g>
      <g id="g107">
        <path id="path109" d="M39.499 38.074a.496.496 0 0 1-.321-.117c-2.822-2.366-6.367-4.311-10.253-5.625a.5.5 0 1 1 .32-.947c4.003 1.353 7.66 3.361 10.575 5.806a.499.499 0 0 1-.321.883z" fill="#231f20"></path>
      </g>
      <g id="g115">
        <path id="path117" d="M42.11 56.794a.501.501 0 0 1-.37-.838 1.38 1.38 0 0 0 .18-1.625c-.094-.094-3.688-4.195-4.522-6.056-1.248-2.786-1.47-3.554-1.47-6.97a.5.5 0 1 1 1 0c0 3.26.174 3.862 1.383 6.562.772 1.723 4.382 5.843 4.42 5.884.264.44.373.852.373 1.269 0 .598-.222 1.17-.625 1.612a.501.501 0 0 1-.37.162z" fill="#231f20"></path>
      </g>
      <g id="g123">
        <path id="path125" d="M15.8 49.516c-.164.43-.525 1.649 0 2.274.523.625.742 1.147.742 1.147l-4.094 2.29-1.218-1.594.156-2.375 2.187-.406 2.226-1.336z" fill="#f0f2f2"></path>
      </g>
      <g id="g131">
        <path id="path133" d="M30.827 9.403c-.015-.09-.254-.615.309-.692.562-.078.812.172.937.516.125.344.032 1.531.188 1.75.156.219.531.236.531.236s-.281-.687-.187-1.258c.093-.572.593-2.447.875-2.697.281-.25 1.781-.843 2.906-.406 1.125.438 1.645.097 1.645.097l-.989-2.496-2.969-.01-1.812.315-1.125 1.344v.969l-.661.937.352 1.395z" fill="#643f13"></path>
      </g>
      <g id="g139">
        <path id="path141" d="M32.108 9.375s.934-.85 1.731-1.054c.797-.203 1.406-.5 2.469-.203 1.062.297 1.723.719 1.723.719V7.212s-1.251-.485-2.253-.5c-1.001-.016-2.36.156-2.845.406-.485.25-1.735 1.234-1.89 1.406-.157.172-.11.406-.11.406s.187-.343.422-.25c.234.094.437 0 .562.188.125.187.19.507.19.507z" fill="#212733"></path>
      </g>
      <g id="g147">
        <path id="path149" d="M12.261 51.28s-.375.79-.344 1.822c.031 1.031.997 1.697.997 1.697L10.26 57.07l-2.22 2.097-.89.278-.671-1.188.968-2.895 1.313-2.426 1.333-2.283 2.167.625z" fill="#ab0738"></path>
      </g>
      <g id="g155">
        <path id="path157" d="M24.865 38.037a.495.495 0 0 1-.28-.086 5.934 5.934 0 0 1-2.554-5.788.5.5 0 1 1 .99.145 4.935 4.935 0 0 0 2.124 4.815.5.5 0 0 1-.28.914z" fill="#231f20"></path>
      </g>
      <g id="g163">
        <path id="path165" d="M36.432 41.749h-.034a25.641 25.641 0 0 1-11.796-3.791.5.5 0 0 1 .527-.85 24.65 24.65 0 0 0 11.336 3.642.5.5 0 0 1-.033.999z" fill="#231f20"></path>
      </g>
      <g id="g171">
        <path id="path173" d="M33.041 33.945h-.034a.5.5 0 0 1-.466-.533 25.682 25.682 0 0 1 3.589-11.436.5.5 0 0 1 .857.516 24.664 24.664 0 0 0-3.448 10.987.5.5 0 0 1-.498.466z" fill="#231f20"></path>
      </g>
      <g id="g179">
        <path id="path181" d="M22.469 32.727a.499.499 0 0 1-.496-.566c.548-4.094 2.409-14.247 7.827-20.11l.15-.16c.49-.52.692-.736.537-1.573l-.053-.287c-.22-1.16-.494-2.606.18-3.718.663-1.094 1.609-2.35 3.05-2.36.2 0 .417-.012.645-.021 1.24-.057 2.776-.127 3.445 1.01.627 1.067 1.187 2.897.937 4.399-.008.055-1.182 5.504-2.403 5.81-.484.121-2.248.238-2.691-.133-.212-.177-1.547-1.904-1.655-2.226a.501.501 0 0 1 .95-.316c.093.173 1.039 1.432 1.311 1.736.303.067 1.343.094 1.843-.032.346-.317 1.413-3.527 1.66-5.003.2-1.2-.259-2.783-.813-3.727-.365-.62-1.568-.567-2.539-.52-.24.011-.473.022-.684.023-.94.006-1.64.952-2.2 1.877-.476.785-.251 1.97-.054 3.015l.056.292c.245 1.336-.26 1.872-.794 2.44l-.144.153c-5.224 5.653-7.035 15.564-7.571 19.563a.5.5 0 0 1-.494.434z" fill="#231f20"></path>
      </g>
      <path id="path189" d="M7.429 59.73c-.272.017-.494.238-.699 0-.37-.433-.528-1.188-.366-1.755.02-.075 2.933-7.67 3.632-7.81.222-.047.491.03 1.464.353.259.086.63.209.8.252.488-.17 2.645-1.316 4.546-2.381.65-.37 1.225-.78 1.782-1.179 1.127-.804 2.191-1.564 3.759-1.958a.501.501 0 0 1 .244.97c-1.385.348-2.374 1.054-3.422 1.802-.577.413-1.175.84-1.872 1.236-4.6 2.578-4.917 2.534-5.099 2.515-.185-.023-.505-.127-1.052-.308-.234-.077-.575-.19-.81-.258-.617 1.214-2.847 6.465-3.01 7.04-.089.31.075.784.192.857a.297.297 0 0 1 .04-.043c.01-.105.036-.141.104-.221 4.53-5.256 10.821-8.429 17.716-8.934a.511.511 0 0 1 .535.463.501.501 0 0 1-.463.535c-6.59.483-12.607 3.501-16.957 8.503-.097.27-.394.244-.954.314-.037.005 0 0-.11.007z" fill="#231f20"></path>
      <g id="g195">
        <path id="path197" d="M27.733 49.323a.499.499 0 0 1-.416-.777 24.712 24.712 0 0 0 3.563-8.272.493.493 0 0 1 .599-.376.5.5 0 0 1 .375.6A25.696 25.696 0 0 1 28.15 49.1a.5.5 0 0 1-.416.222z" fill="#231f20"></path>
      </g>
      <g id="g203">
        <path id="path205" d="M22.469 46.237a.5.5 0 0 1-.47-.668c.958-2.685 1.242-6.902.66-9.808a.5.5 0 1 1 .98-.198c.614 3.062.313 7.508-.7 10.342a.5.5 0 0 1-.47.332z" fill="#231f20"></path>
      </g>
      <g id="g211">
        <path id="path213" d="M25.417 50.953a.5.5 0 1 1 0-1c.827 0 1.571-.521 1.853-1.298a.499.499 0 1 1 .939.34 2.976 2.976 0 0 1-2.792 1.958z" fill="#231f20"></path>
      </g>
      <g id="g219">
        <path id="path221" d="M47.886 18.316c.625.349.937.255 1.156 1.067.219.813 0 1.25 0 1.25l4.125-2.317s-.562-1.026-.937-1.308c-.375-.28-1.094-.343-1.094-.343l-3.25 1.65z" fill="#f0f2f2"></path>
      </g>
      <g id="g227">
        <path id="path229" d="M41.661 23.368c-1.292 0-3.62-.423-5.35-.736-.65-.118-1.21-.22-1.585-.275-1.214-.178-2.87.338-3.405.553a.5.5 0 1 1-.371-.928c.022-.01 2.197-.867 3.921-.615.382.057.954.16 1.618.28 1.7.31 4.27.768 5.37.716 1.639-.086 6.013-1.177 8.245-2.705 2.092-1.431 2.683-1.94 2.846-2.118a3.968 3.968 0 0 0-.027-.288l-.022-.173c-.1-.788-.148-1.373.133-1.732.259-.333.7-.551 1.12-.554h.01c.294 0 .541.105.695.298.359.45.163 1.363.076 1.582-.108.266-.422.513-.935.733l-.055.02c.017.232.003.414-.087.566-.152.254-.536.676-3.19 2.492-2.477 1.695-7.084 2.79-8.756 2.877a4.068 4.068 0 0 1-.25.007zm12.405-7.56a.473.473 0 0 0-.244.154c-.018.059-.011.226.006.415.1-.056.187-.111.216-.144.008-.043.027-.264.022-.425z" fill="#231f20"></path>
      </g>
      <g id="g235">
        <path id="path237" d="M41.17 19.565c-.316 0-.668-.07-1.127-.294-1.007-.488-3.201-1.357-4.741-1.825-1.375-.418-2.33-.279-2.927-.138a.494.494 0 0 1-.6-.372.498.498 0 0 1 .371-.601c.71-.168 1.841-.332 3.447.154 1.607.489 3.824 1.367 4.886 1.882.535.258.742.217 1.244.113a7.726 7.726 0 0 1 1.092-.162c.282-.02.65-.036 1.065-.053 1.346-.058 3.597-.155 4.334-.546l.36-.19c.674-.356 1.753-.926 2.114-1.155.016-.291-.02-.95-.034-1.222-.01-.195-.018-.353-.018-.428 0-.457.64-1.61 1.325-1.769.24-.057.685-.154 2.868 2.098a.5.5 0 0 1-.718.696c-.71-.733-1.623-1.566-1.988-1.775-.172.152-.457.603-.49.779l.02.346c.072 1.338.05 1.653-.127 1.875-.138.173-.463.372-2.485 1.439l-.358.19c-.868.46-2.67.57-4.76.66-.404.018-.763.034-1.037.053-.406.029-.7.09-.961.144-.254.052-.491.101-.754.101zm10.864-5.63z" fill="#231f20"></path>
      </g>
      <g id="g251">
        <path id="path253" d="M51.69 14.216a.496.496 0 0 1-.363-.157c-.177-.187-.398-.39-.615-.59-.368-.338-.715-.657-.899-.933-.342-.514-.846-2.57-.779-3.851a.5.5 0 0 1 .998.053c-.06 1.148.442 2.979.614 3.243.117.175.449.482.743.752.235.216.473.437.665.64a.499.499 0 0 1-.364.843z" fill="#231f20"></path>
      </g>
      <g id="g259">
        <path id="path261" d="M51.367 14.653a.498.498 0 0 1-.348-.141c-.312-.303-.917-.842-1.212-1-.377-.2-2.1-.725-3.763-.725-.012 0-.024-.002-.033 0a.5.5 0 0 1-.5-.498c-.001-.287.218-.494.532-.502 1.767 0 3.664.54 4.234.843.517.275 1.346 1.074 1.439 1.165a.5.5 0 0 1-.349.858z" fill="#231f20"></path>
      </g>
      <g id="g267">
        <path id="path269" d="M40.26 19.321a.5.5 0 0 1-.218-.949c.497-.242 4.89-2.375 5.853-2.604.354-.084.747-.333 1.125-.574.538-.341 1.048-.662 1.565-.586.509.077.876-.02.917-.155.073-.233.144-1.318.182-2.391h-1.926c-.374.209-.89.525-1.053.685-.266.26-1.11 1.129-1.503 1.692-.52.748-1.892 1.168-4.24 1.683-.871.191-1.558.377-2.063.515-.977.263-1.31.354-1.577.026-.108-.133-.133-.382-.078-.56-.017-.254-.409-1.14-.932-1.88a.5.5 0 0 1 .816-.577c.01.015.864 1.229 1.066 2.144.136-.035.29-.077.444-.12.516-.139 1.218-.33 2.11-.524 1.6-.352 3.285-.778 3.634-1.279.44-.629 1.32-1.537 1.622-1.833.344-.339 1.216-.82 1.387-.912a.497.497 0 0 1 .238-.06h2.57a.5.5 0 0 1 .5.512c-.012.436-.074 2.638-.242 3.178-.212.676-.988 1.003-2.02.845-.14-.026-.59.258-.881.442-.428.27-.912.578-1.43.701-.647.155-3.731 1.598-5.647 2.53a.498.498 0 0 1-.218.051z" fill="#231f20"></path>
      </g>
      <g id="g275">
        <path id="path277" d="M25.885 28.34a.5.5 0 0 1-.07-.995c.014-.002 1.402-.204 2.405-.558 1.05-.37 2.873-2.628 3.652-3.593a.5.5 0 1 1 .777.63c-1.669 2.066-3.003 3.52-4.097 3.906-1.096.387-2.534.596-2.595.605a.605.605 0 0 1-.072.005z" fill="#231f20"></path>
      </g>
      <g id="g283">
        <path id="path285" d="M28.83 30a.5.5 0 0 1-.111-.987c1.233-.282 2.427-1.474 2.82-1.867a.5.5 0 1 1 .706.708c-.49.489-1.789 1.79-3.306 2.133a.478.478 0 0 1-.11.013z" fill="#231f20"></path>
      </g>
      <g id="g291">
        <path id="path293" d="M35.947 7.255s-.172.4.361.345c.534-.055.91-.26.91-.26s-.416.471-.988.487c-.573.016-.565-.286-.565-.286s-.063-.2 0-.286c.063-.087.15-.173.259-.157.11.015.023.157.023.157z" fill="#e2d6d3"></path>
      </g>
      <g id="g299">
        <path id="path301" d="M41.235 49.964s.076.429.49.089c.415-.34.617-.718.617-.718s-.087.622-.556.95c-.469.33-.629.074-.629.074s-.163-.133-.158-.24c.005-.106.03-.225.13-.273.1-.047.106.118.106.118z" fill="#231f20"></path>
      </g>
      <g id="g307">
        <path id="path309" d="M14.993 51.193s-.428.08-.085.492c.343.412.722.611.722.611s-.623-.082-.955-.549c-.332-.466-.077-.628-.077-.628s.13-.164.237-.16c.107.004.227.028.275.127.048.1-.117.107-.117.107z" fill="#231f20"></path>
      </g>
      <g id="g315">
        <path id="polygon317" d="m10.105 53.13-.25.628 1.375.875z" fill="#ff6d00"></path>
      </g>
      <g id="g323">
        <path id="polygon325" d="m9.855 54.008-.297.625.984.641z" fill="#ff6d00"></path>
      </g>
      <g id="g331">
        <path id="polygon333" d="m9.323 54.962-.265.625.797.453z" fill="#ff6d00"></path>
      </g>
      <g id="g339">
        <path id="polygon341" d="m43.85 58.133.788.036.23-2.07z" fill="#ff6d00"></path>
      </g>
      <g id="g347">
        <path id="polygon349" d="m44.902 58.06.81.095.178-1.489z" fill="#ff6d00"></path>
      </g>
      <g id="g355">
        <path id="polyline357" d="m47.046 57.18-.87 1.121.794.056" fill="#ff6d00"></path>
      </g>
      <g id="g363">
        <path id="path365" d="m48.07 10.375.087.104c.07-.08.137-.163.199-.248l-.06-.072.28-.266.003.003a4.09 4.09 0 0 0 .275-.555l-.185.176-.129-.155.276-.262.092.11c.04-.106.075-.215.104-.323.03-.11.049-.218.069-.327l-.172.163-.142-.171.237-.226.1.121c.028-.183.039-.363.038-.54l-.045.043-.162-.196.193-.183a3.055 3.055 0 0 0-.36-1.174l-.03.028-.162-.196.053-.05c-.04-.059-.075-.12-.118-.175l-.068.064-.164-.198.058-.056c-.038-.04-.072-.084-.113-.123-.01-.01-.021-.017-.031-.026l-.047.045-.16-.193.014-.014a2.857 2.857 0 0 0-.775-.417l.106.13-.279.265-.163-.198.242-.231a3.05 3.05 0 0 0-.235-.063l-.14.134-.14-.169.015-.014a3.294 3.294 0 0 0-.462-.037l.087.106-.236.225-.17-.204.125-.12c-.188.01-.378.035-.567.075l.083.1-.276.262-.157-.189.124-.117a3.905 3.905 0 0 0-.483.172l-.279.266-.076-.092c-.091.05-.181.104-.27.162l.12.145-.272.26-.153-.185c-.08.064-.16.13-.238.2l.165.2-.276.262-.158-.192a4.348 4.348 0 0 0-.207.24l.139.167-.28.266-.09-.11a4.18 4.18 0 0 0-.169.286l.033.04-.1.095c-.084.171-.158.345-.217.522l.144.174-.212.202-.028-.034a3.745 3.745 0 0 0-.07.414l.005-.004.17.204-.197.187c0 .094.001.187.008.28l.321-.306.14.168-.343.327-.112-.136c.02.217.06.43.12.635l.063.075-.03.028c.025.071.052.141.081.21l.082-.078.162.196-.13.124c.034.063.07.124.108.185l.155-.148.16.193-.169.16c.043.055.087.109.133.16l.169-.16.164.199-.155.147c.051.048.106.091.16.135l.128-.122.162.196-.081.077c.06.04.12.08.182.114l.032-.03.067.08c.188.096.386.17.59.224l-.158-.191.343-.326.164.198-.339.322c.081.02.163.04.246.054l.226-.216.162.196-.062.059c.17.012.34.01.513-.003l-.092-.11.212-.203.142.172-.136.13c.186-.023.372-.06.557-.11l-.062-.075.238-.226.128.156-.076.072c.187-.064.37-.142.55-.236l.165-.157.037.045c.089-.053.176-.111.262-.172l-.073-.088.276-.263.097.118c.08-.067.155-.138.23-.211l-.101-.122.271-.259zm.639-2.405.162.195-.237.226-.162-.195.237-.226zm.208-.84.164.198-.279.265-.164-.198.279-.265zm-.505.48.164.199-.237.226-.164-.198.237-.226zm-.464.442.164.198-.275.263-.164-.198.275-.263zm.697-1.251.139.168-.279.266-.14-.169.28-.265zm-.506.481.14.168-.237.226-.14-.168.237-.226Zm-.463.441.14.169-.276.262-.14-.168.276-.263Zm.673-1.279.163.196-.28.266-.161-.196.278-.266zm-.505.482.162.195-.237.226-.162-.196.237-.225zm-.463.441.162.196-.276.262-.162-.196.276-.262Zm-.502.478.162.196-.279.265-.162-.195.28-.266Zm1.173-1.76.164.199-.279.265-.164-.197.28-.266Zm-.505.482.164.198-.237.226-.164-.198.237-.226Zm-.463.441.164.198-.276.263-.164-.198.276-.263Zm-.502.478.164.198-.279.266-.164-.198.279-.266Zm1.178-1.754.16.193-.28.266-.16-.193.28-.266zm-.506.481.16.193-.237.226-.16-.193.237-.226zm-.463.442.16.193-.276.262-.16-.193.276-.262Zm-.502.478.16.193-.28.265-.159-.193.28-.265Zm1.176-1.757.161.195-.279.266-.162-.195.28-.266Zm-.506.481.162.196-.237.225-.162-.195.237-.226zm-.463.441.162.196-.276.262-.162-.195.276-.263Zm-.502.478.162.196-.279.266-.162-.196.279-.266Zm.668-1.277.164.198-.237.225-.164-.198.237-.225Zm-.463.44.164.199-.276.262-.164-.198.276-.262Zm-.502.479.164.198-.279.265-.164-.198.279-.265zm.693-1.248.14.168-.238.226-.14-.169.238-.225zm-.464.44.14.17-.276.262-.14-.169.276-.262Zm-.502.479.14.168-.279.266-.14-.169.28-.265zm.2-.844.17.205-.276.263-.17-.205.276-.263zM42.74 7.703l-.156-.189.237-.226.156.19-.237.225Zm.464-.44-.157-.19.28-.266.156.19-.28.265Zm.505-.482-.157-.19.276-.262.156.19-.275.262Zm.502-.478-.157-.19.272-.258.157.189-.272.259zm.498-.475-.157-.189.28-.265.156.189-.279.265zm-2.104 2.658-.17-.205.212-.202.17.205-.212.202zm.438-.418-.17-.204.237-.226.17.205-.237.225zm.463-.44-.17-.205.28-.266.17.204-.28.266zm.506-.482-.17-.205.276-.262.169.205-.275.262zm.501-.478-.17-.204.273-.26.17.205-.273.26zm.498-.474-.169-.205.279-.265.17.204-.28.266zm-2.134 2.62-.14-.168.213-.201.14.168-.213.202zm.438-.416-.139-.169.237-.226.14.169-.238.226zm.464-.442-.14-.168.28-.266.139.169-.28.265zm.505-.48-.14-.17.276-.262.14.169-.276.262Zm.362-.647.272-.26.14.17-.272.258-.14-.168Zm-2.04 2.886-.165-.198.343-.326.164.198-.343.326Zm.568-.542-.164-.197.212-.202.164.198-.212.201Zm.438-.417-.163-.198.236-.225.164.197-.237.226Zm.464-.441-.164-.198.279-.266.164.198-.28.266Zm.505-.481-.164-.198.276-.263.164.198-.276.263Zm.502-.478-.164-.198.272-.259.164.198-.272.259ZM42.9 10.072l-.162-.196.343-.326.162.195-.343.327Zm.57-.542-.163-.196.212-.202.162.196-.212.202Zm.438-.418-.163-.195.237-.226.163.196-.237.225Zm.463-.44-.162-.196.279-.266.162.195-.28.266Zm.505-.482-.162-.196.276-.262.162.196-.276.262Zm.502-.478-.162-.196.272-.258.162.195-.272.259zm-2.185 2.713-.16-.193.343-.326.16.193-.343.326zm.57-.542-.16-.192.211-.202.16.193-.212.201zm.437-.417-.16-.193.238-.226.16.193-.238.226zm.464-.441-.16-.193.279-.266.16.193-.28.266zm.505-.481-.16-.193.276-.263.16.193-.276.263Zm.502-.478-.16-.193.272-.26.16.194-.272.259zm-2.18 2.718-.165-.198.343-.326.164.198-.343.326zm.568-.542-.164-.198.212-.202.164.198-.212.202zm.439-.417-.165-.198.237-.226.165.198-.237.226zm.463-.441-.164-.199.279-.265.164.198-.28.266zm.505-.482-.164-.198.276-.262.164.198-.276.262zm.502-.478-.164-.198.272-.259.164.199-.272.258Zm-2.183 2.716-.162-.195.343-.327.162.196-.343.326zm.57-.542-.163-.195.212-.202.162.196-.212.201zm.438-.417-.162-.196.237-.225.162.195-.237.226zm.463-.441-.162-.196.279-.266.162.196-.28.266Zm.505-.481-.162-.196.276-.262.162.195-.276.263Zm.502-.478-.162-.196.272-.259.162.196-.272.259Zm-2.205 2.688-.14-.168.343-.326.14.168-.343.326zm.569-.542-.14-.168.212-.202.14.169-.212.201zm.438-.417-.14-.168.238-.226.14.168-.238.226zm.463-.441L45.39 9.9l.279-.265.14.168-.28.266Zm.506-.481-.14-.169.276-.262.14.168-.276.263zm.502-.478-.14-.169.272-.258.14.168-.272.259Zm.498-.475-.14-.168.28-.266.139.168-.28.266Zm-2.11 2.651-.164-.198.212-.202.164.198-.212.202zm.438-.417-.164-.198.237-.226.164.198-.237.226zm.464-.442-.164-.198.278-.265.164.198-.278.265Zm.505-.48-.164-.199.275-.262.164.198-.275.262Zm.502-.479-.164-.198.271-.259.164.199-.271.258Zm.498-.474-.164-.198.279-.266.164.198-.28.266zm-2.112 2.649-.162-.196.212-.202.162.196-.212.202zm.438-.418-.162-.196.237-.225.162.195-.237.226zm.464-.441-.162-.196.278-.266.163.196-.28.266zm.505-.481-.162-.196.275-.263.163.196-.276.263zm.502-.478-.162-.196.271-.259.162.196-.271.259Zm.498-.475-.162-.195.279-.266.162.195-.28.266Zm.505-.481-.162-.196.276-.262.162.196-.276.262zm-2.199 2.688-.142-.171.237-.226.143.171-.238.226zm.464-.441-.142-.172.279-.265.142.171-.28.266zm.505-.481-.142-.172.276-.262.142.171-.276.263zm.502-.478-.142-.172.271-.258.143.171-.272.259zm.498-.474-.142-.172.279-.266.142.172-.28.266Zm.505-.482-.142-.171.276-.263.142.172-.276.262Zm-1.748 2.231-.13-.155.28-.266.129.156-.28.265zm.505-.481-.129-.156.276-.262.129.155-.276.263zm.502-.478-.129-.156.272-.258.128.155-.271.259Zm.498-.474-.13-.156.28-.266.129.156-.28.266Z" fill="#d1d3d4"></path>
      </g>
      <g id="g371">
        <circle id="circle373" cx="44.638" cy="33.445" r="2.27" fill="#ffff51"></circle>
      </g>
      <g id="g377">
        <path id="path379" d="M44.638 36.215a2.772 2.772 0 0 1-2.77-2.77 2.772 2.772 0 0 1 2.77-2.77 2.772 2.772 0 0 1 2.77 2.77 2.772 2.772 0 0 1-2.77 2.77zm0-4.54c-.976 0-1.77.795-1.77 1.77 0 .976.794 1.77 1.77 1.77.975 0 1.77-.794 1.77-1.77 0-.975-.795-1.77-1.77-1.77z" fill="#231f20"></path>
      </g>
      <g id="g243">
        <path id="path245" d="M45.104 12.89c-1.082 0-2.066-.393-2.797-1.124-1.633-1.633-1.462-4.462.381-6.306.884-.885 2.02-1.416 3.199-1.496 1.193-.092 2.307.313 3.108 1.114.725.725 1.124 1.72 1.124 2.805 0 .31-.032.623-.097.93a5.112 5.112 0 0 1-1.409 2.57c-.884.886-2.02 1.417-3.199 1.497-.103.008-.207.01-.31.01zm1.09-7.937c-.08 0-.159.003-.24.008-.936.064-1.846.492-2.558 1.206-.713.713-1.142 1.622-1.206 2.559-.062.91.23 1.74.824 2.333.593.593 1.415.881 2.333.824.936-.065 1.845-.492 2.56-1.206.584-.585.978-1.3 1.137-2.068.05-.24.075-.484.075-.726 0-.817-.295-1.562-.83-2.098-.542-.54-1.28-.832-2.096-.832Z" fill="#231f20"></path>
      </g>
    </g>
  </g>
</svg>
